<svg width="172" height="154" viewBox="0 0 172 154" fill="none" xmlns="http://www.w3.org/2000/svg">
<path d="M136.485 115.569C138.035 117.449 190.245 89.1791 164.515 26.0491C164.515 26.0491 96.8855 67.5191 136.485 115.569Z" fill="#47774C"/>
<path d="M144.575 57.2191C144.765 56.6691 144.865 56.3391 144.865 56.3391C144.865 56.3391 144.745 56.7091 144.575 57.2191Z" fill="#3E623F"/>
<path opacity="0.41" d="M136.485 115.569C137.925 117.329 183.245 92.9292 168.745 38.6192C168.265 38.3892 167.825 38.1192 167.305 37.9092C167.305 37.9092 163.465 97.3792 148.595 92.4692C135.145 88.0292 142.955 62.1392 144.585 57.2192C142.825 62.4092 133.655 88.6192 131.205 78.1292C130.305 74.2492 129.545 69.1392 128.855 64.2092C121.945 78.9292 120.965 96.7392 136.485 115.569Z" fill="#2C642F"/>
<path d="M155.185 42.1691C155.435 42.3791 154.255 44.2091 152.595 46.9291C151.025 49.7291 149.065 53.4591 147.765 57.4691C146.455 61.4591 145.505 65.5491 145.105 68.6991C144.625 71.8191 144.455 73.9391 144.455 73.9391C144.455 73.9391 144.175 76.0391 143.755 79.1991C143.425 82.3991 142.995 86.6791 142.555 90.9791C141.825 99.6191 140.145 108.229 139.515 108.109C138.945 108.009 139.525 99.4491 139.455 90.8091C139.475 86.4891 139.555 82.1391 139.715 78.8591C139.905 75.5791 140.105 73.3791 140.105 73.3791C140.105 73.3791 140.405 71.1891 141.135 67.9391C141.775 64.6791 143.115 60.3991 144.875 56.3191C146.635 52.2191 149.145 48.5191 151.205 45.9291C153.345 43.4391 154.975 41.9791 155.185 42.1691Z" fill="#31473A"/>
<path d="M101.735 86.059C103.135 87.259 138.365 59.469 111.065 15.7791C111.065 15.7791 66.0555 55.379 101.735 86.059Z" fill="url(#paint0_radial_1134_12528)"/>
<path d="M100.235 41.5591C100.305 41.1191 100.335 40.8691 100.335 40.8691C100.335 40.8691 100.295 41.1491 100.235 41.5591Z" fill="#3E623F"/>
<path d="M101.735 86.059C103.035 87.179 133.635 63.159 115.825 24.589C115.445 24.479 115.075 24.339 114.665 24.249C114.665 24.249 119.475 69.029 107.765 67.299C97.1854 65.729 99.6554 45.439 100.225 41.569C99.5854 45.659 96.1354 66.359 92.9554 58.869C91.7854 56.099 90.5554 52.389 89.4054 48.809C86.1854 60.639 87.7554 74.039 101.735 86.059Z" fill="#40662D"/>
<path d="M106.195 28.9791C106.405 29.0991 105.765 30.6191 104.885 32.8591C104.085 35.1391 103.095 38.1791 102.645 41.3291C102.185 44.4691 102.005 47.6391 102.115 50.0391C102.155 52.4191 102.305 54.0291 102.305 54.0291C102.305 54.0291 102.365 55.6291 102.455 58.0391C102.625 60.4691 102.855 63.7091 103.085 66.9691C103.655 73.4991 103.515 80.1291 103.035 80.1191C102.595 80.1091 101.925 73.6691 100.755 67.2491C100.215 64.0291 99.7055 60.7791 99.4055 58.3191C99.1255 55.8591 98.9855 54.1891 98.9855 54.1891C98.9855 54.1891 98.9255 52.5191 99.0455 50.0091C99.1055 47.4991 99.5455 44.1391 100.335 40.8791C101.115 37.5991 102.505 34.5191 103.705 32.3291C104.995 30.1691 106.015 28.8691 106.195 28.9791Z" fill="#31473A"/>
<path d="M90.2054 83.7791C90.7154 82.0091 50.7554 61.5791 22.4454 104.629C22.4454 104.629 77.2154 129.009 90.2054 83.7791Z" fill="#47774C"/>
<path d="M50.3855 103.709C49.9555 103.829 49.7155 103.909 49.7155 103.909C49.7155 103.909 49.9955 103.829 50.3855 103.709Z" fill="#3E623F"/>
<path opacity="0.41" d="M90.2054 83.7792C90.6854 82.1292 56.0855 64.3392 28.4655 96.6192C28.5255 97.0192 28.5455 97.4092 28.6355 97.8192C28.6355 97.8192 67.3255 74.7592 70.6354 86.1192C73.6254 96.3892 54.1555 102.609 50.3955 103.709C54.3855 102.589 74.6355 97.0792 69.1555 103.099C67.1255 105.319 64.2655 107.979 61.4855 110.519C73.5955 108.519 85.1154 101.509 90.2054 83.7792Z" fill="#2C642F"/>
<path d="M36.4754 103.549C36.4954 103.299 38.1454 103.249 40.5454 103.119C42.9554 102.899 46.1254 102.529 49.1754 101.609C52.2254 100.709 55.1754 99.5592 57.3054 98.4592C59.4554 97.4292 60.8454 96.6192 60.8454 96.6192C60.8454 96.6192 62.2754 95.8992 64.4254 94.8092C66.5654 93.6392 69.4054 92.0892 72.2754 90.5092C77.9754 87.2592 84.0554 84.6292 84.2454 85.0692C84.4254 85.4692 78.8454 88.7692 73.4954 92.5092C70.7954 94.3392 68.0554 96.1592 65.9454 97.4592C63.8254 98.7492 62.3654 99.5592 62.3654 99.5592C62.3654 99.5592 60.8754 100.309 58.5454 101.249C56.2454 102.239 53.0054 103.239 49.7054 103.889C46.3954 104.549 43.0154 104.569 40.5254 104.399C38.0554 104.149 36.4454 103.759 36.4754 103.549Z" fill="#31473A"/>
<path d="M127.775 119.219C128.425 116.969 77.7655 91.0792 41.8655 145.649C41.8655 145.659 111.315 176.559 127.775 119.219Z" fill="url(#paint1_radial_1134_12528)"/>
<path d="M77.3054 144.489C76.7654 144.639 76.4554 144.739 76.4554 144.739C76.4554 144.739 76.8054 144.639 77.3054 144.489Z" fill="#3E623F"/>
<path d="M127.775 119.219C128.375 117.129 84.5255 94.5792 49.4955 135.499C49.5755 135.999 49.6055 136.499 49.7155 137.019C49.7155 137.019 98.7655 107.779 102.955 122.189C106.745 135.219 82.0655 143.099 77.2955 144.489C82.3555 143.059 108.025 136.089 101.075 143.709C98.5055 146.519 94.8755 149.899 91.3555 153.119C106.725 150.589 121.325 141.699 127.775 119.219Z" fill="#40662D"/>
<path d="M59.6655 144.279C59.6955 143.969 61.7855 143.899 64.8355 143.739C67.8955 143.459 71.9155 142.989 75.7855 141.829C79.6455 140.689 83.3955 139.229 86.0955 137.839C88.8155 136.529 90.5855 135.509 90.5855 135.509C90.5855 135.509 92.3955 134.599 95.1255 133.209C97.8355 131.729 101.445 129.759 105.075 127.759C112.295 123.639 120.005 120.299 120.255 120.869C120.475 121.369 113.415 125.559 106.625 130.299C103.205 132.629 99.7355 134.929 97.0455 136.579C94.3555 138.209 92.5055 139.249 92.5055 139.249C92.5055 139.249 90.6155 140.199 87.6555 141.389C84.7355 142.649 80.6255 143.909 76.4555 144.739C72.2655 145.579 67.9755 145.599 64.8155 145.379C61.6655 145.039 59.6255 144.549 59.6655 144.279Z" fill="#31473A"/>
<path d="M70.6954 59.7892C72.1454 60.3392 92.0354 28.3492 58.0055 1.63916C58.0155 1.63916 33.7754 45.7492 70.6954 59.7892Z" fill="#47774C"/>
<path d="M56.8154 25.0793C56.7454 24.7193 56.6954 24.4993 56.6954 24.4993C56.6954 24.4993 56.7454 24.7393 56.8154 25.0793Z" fill="#3E623F"/>
<path opacity="0.41" d="M70.6955 59.7893C72.0455 60.2993 89.3455 32.6093 64.2855 7.23926C63.9555 7.25926 63.6255 7.25926 63.2655 7.29926C63.2655 7.29926 79.8355 41.2893 70.1055 43.2493C61.3055 45.0293 57.4655 28.3093 56.8155 25.0793C57.4755 28.4893 60.6555 45.8192 56.0155 40.8092C54.3055 38.9592 52.2755 36.3793 50.3455 33.8793C51.1655 44.1593 56.2255 54.2893 70.6955 59.7893Z" fill="#2C642F"/>
<path d="M57.9354 13.4491C58.1354 13.4891 58.0654 14.8691 58.0054 16.8891C58.0254 18.9191 58.1154 21.5991 58.6554 24.2191C59.1954 26.8291 59.9454 29.3891 60.7154 31.2391C61.4354 33.1091 62.0054 34.3291 62.0054 34.3291C62.0054 34.3291 62.5054 35.5691 63.2754 37.4491C64.0954 39.3191 65.2054 41.8091 66.3154 44.3191C68.6354 49.3091 70.4054 54.5891 70.0254 54.7191C69.6754 54.8391 67.3054 49.9491 64.5554 45.2091C63.2054 42.8191 61.8854 40.3991 60.9454 38.5391C60.0154 36.6691 59.4354 35.3991 59.4354 35.3991C59.4354 35.3991 58.9154 34.0991 58.2954 32.0791C57.6254 30.0791 57.0154 27.2991 56.7054 24.4991C56.3854 21.6891 56.6054 18.8591 56.9254 16.7891C57.3254 14.7291 57.7554 13.4091 57.9354 13.4491Z" fill="#31473A"/>
<path d="M41.0155 43.5491C42.5355 43.2791 43.2555 5.61911 0.355469 0.0891113C0.355469 0.0891113 2.11547 50.3891 41.0155 43.5491Z" fill="url(#paint2_radial_1134_12528)"/>
<path d="M11.3255 20.8392C11.0755 20.5592 10.9355 20.4092 10.9355 20.4092C10.9355 20.4092 11.0955 20.5792 11.3255 20.8392Z" fill="#3E623F"/>
<path d="M41.0155 43.5492C42.4355 43.2992 43.1355 10.6592 8.61551 1.6792C8.33551 1.8692 8.05551 2.0292 7.77551 2.2492C7.77551 2.2492 39.4055 22.9592 32.0455 29.6392C25.3955 35.6792 13.5355 23.2692 11.3255 20.8392C13.6455 23.4292 25.2455 36.6892 18.6855 34.7692C16.2655 34.0492 13.2055 32.8792 10.2655 31.7192C16.2355 40.1192 25.7655 46.2292 41.0155 43.5492Z" fill="#40662D"/>
<path d="M6.33542 10.2792C6.52542 10.2092 7.17542 11.4292 8.15542 13.1992C9.20542 14.9392 10.6554 17.1892 12.4654 19.1592C14.2654 21.1292 16.2254 22.9392 17.8354 24.1392C19.4054 25.3792 20.5254 26.1392 20.5254 26.1392C20.5254 26.1392 21.5954 26.9492 23.2154 28.1692C24.8854 29.3492 27.1054 30.9292 29.3454 32.5092C33.8854 35.6092 38.1154 39.2292 37.8554 39.5392C37.6154 39.8192 33.0754 36.8292 28.2854 34.1692C25.9054 32.8092 23.5354 31.4092 21.7754 30.2892C20.0254 29.1592 18.8754 28.3592 18.8754 28.3592C18.8754 28.3592 17.7654 27.5092 16.1954 26.0992C14.5954 24.7292 12.6554 22.6492 10.9554 20.3992C9.24542 18.1492 7.98542 15.5992 7.19542 13.6592C6.46542 11.6892 6.16542 10.3292 6.33542 10.2792Z" fill="#31473A"/>
<path d="M61.0055 61.0991C61.8255 59.7891 34.3755 33.9991 1.49548 62.1091C1.50548 62.1091 39.9855 94.5391 61.0055 61.0991Z" fill="#47774C"/>
<path opacity="0.41" d="M61.0054 61.0991C61.7754 59.8791 38.0254 37.4691 8.22545 57.0491C8.18545 57.3791 8.10545 57.6991 8.08545 58.0591C8.08545 58.0591 44.6654 48.4891 44.6754 58.4191C44.6954 67.3991 27.5354 67.8791 24.2554 67.8791C27.7354 67.8991 45.3454 68.1891 39.5254 71.7591C37.3654 73.0791 34.4454 74.5591 31.6154 75.9591C41.8454 77.1791 52.7654 74.2091 61.0054 61.0991Z" fill="#2C642F"/>
<path d="M13.0655 64.4989C13.1455 64.3089 14.4855 64.6489 16.4455 65.1089C18.4455 65.4889 21.0855 65.9289 23.7555 65.9089C26.4255 65.8989 29.0755 65.6589 31.0455 65.2689C33.0155 64.9389 34.3255 64.6089 34.3255 64.6089C34.3255 64.6089 35.6455 64.3589 37.6355 63.9789C39.6355 63.5389 42.2855 62.9389 44.9655 62.3489C50.3155 61.0589 55.8355 60.3489 55.8855 60.7589C55.9355 61.1189 50.6755 62.4889 45.4855 64.2489C42.8855 65.0989 40.2455 65.9189 38.2355 66.4789C36.2255 67.0189 34.8555 67.3389 34.8555 67.3389C34.8555 67.3389 33.4755 67.5989 31.3755 67.8089C29.2855 68.0689 26.4455 68.1189 23.6355 67.8789C20.8155 67.6389 18.0855 66.8689 16.1155 66.1489C14.2055 65.3589 12.9955 64.6689 13.0655 64.4989Z" fill="#31473A"/>
<path d="M136.505 122.389L134.945 120.879L133.485 119.409L130.585 116.479C128.645 114.539 126.715 112.599 124.755 110.689C120.855 106.839 116.865 103.079 112.855 99.3491C104.805 91.9091 96.5154 84.7191 88.0154 77.7791C83.7854 74.2791 79.4454 70.9291 75.1154 67.5491L68.5254 62.6191L65.2254 60.1591L61.8654 57.7791C52.9754 51.3191 43.7354 45.3791 34.4254 39.5291C43.9054 45.0891 53.3354 50.7691 62.4354 56.9591L65.8754 59.2491L69.2554 61.6091L76.0154 66.3491C80.4554 69.5991 84.9154 72.8291 89.2654 76.2091C98.0054 82.9091 106.545 89.8791 114.865 97.1091C119.015 100.739 123.135 104.399 127.175 108.149C129.205 110.009 131.205 111.909 133.215 113.799L136.205 116.639L137.695 118.049L139.135 119.369L136.505 122.389Z" fill="#31473A"/>
<path d="M136.255 65.8591C135.895 66.5091 135.065 66.0491 135.135 65.4191C136.515 53.5391 146.505 38.3091 158.835 35.2191C160.755 34.7391 162.725 37.2591 161.005 38.7691C156.465 42.7591 151.225 45.5591 146.985 50.0491C142.665 54.6391 139.295 60.3591 136.255 65.8591ZM149.705 80.5391C149.845 77.7691 150.155 74.9891 150.415 72.2291C150.665 69.5191 151.545 66.7291 151.215 64.0291C151.035 62.6091 149.225 61.9891 148.425 63.3391C145.545 68.2091 146.505 75.5891 147.445 80.8991C147.685 82.2591 149.645 81.7591 149.705 80.5391ZM110.235 60.6691C111.045 57.6791 110.405 54.5191 110.475 51.4491C110.545 48.0591 110.475 44.7891 110.455 41.4291C110.455 40.2691 108.835 39.9091 108.285 40.8891C106.405 44.2291 105.365 46.9891 105.225 50.8791C105.095 54.2491 105.255 58.3291 107.315 61.1091C108.125 62.1991 109.855 62.0691 110.235 60.6691ZM95.7555 52.4191C96.7755 43.1391 98.9755 35.1491 105.805 28.4791C106.365 27.9391 105.615 27.1091 104.985 27.4591C96.0455 32.2691 93.5855 43.1091 93.8955 52.4591C93.9255 53.6991 95.6255 53.5791 95.7555 52.4191ZM69.0455 34.4591C68.8255 29.7391 67.7555 24.6991 64.9355 20.7891C64.3455 19.9691 62.9855 20.2691 62.9955 21.3591C63.0555 26.1391 64.8455 30.8491 66.9055 35.0891C67.4055 36.1491 69.0955 35.5491 69.0455 34.4591ZM55.8355 35.9691C55.2755 32.1991 54.6155 28.4391 54.1055 24.6691C54.0355 24.1691 53.1955 23.9491 53.1255 24.5591C52.6455 28.7191 52.7855 32.2391 53.8955 36.2791C54.1755 37.3291 55.9955 37.0991 55.8355 35.9691ZM26.3555 23.7791C20.6455 20.2991 18.2955 13.5791 13.1855 9.50914C12.5355 8.98914 11.4955 9.68914 11.9955 10.4691C15.5455 16.0091 19.7855 21.8891 26.1555 24.2891C26.4655 24.4091 26.6155 23.9391 26.3555 23.7791ZM16.2555 27.1891C17.1855 27.8491 16.7255 29.6891 15.4555 29.2191C12.1655 28.0291 10.6055 25.4691 9.16549 22.4091C7.22549 18.2791 4.72549 13.9391 4.10549 9.36914C3.92549 8.02914 5.70549 7.88914 6.35549 8.70914C10.5855 14.0991 10.4555 23.0391 16.2555 27.1891ZM31.4855 68.7891C29.6755 68.7491 27.8055 68.4591 26.0455 68.0391C24.3155 67.6291 22.9555 66.7691 21.1555 67.1091C19.9355 67.3391 19.5355 68.9391 20.0955 69.8891C21.1955 71.7391 23.6455 72.1191 25.6455 72.3591C27.8455 72.6391 29.8355 72.2991 31.9255 71.5891C33.4655 71.0691 33.1155 68.8191 31.4855 68.7891ZM37.0655 57.2091C29.3355 58.0991 21.7755 59.2791 13.9855 58.7991C13.1455 58.7491 12.7655 60.1291 13.5755 60.4491C20.4455 63.1891 30.0255 59.9291 37.1055 58.8591C38.1355 58.7091 38.1455 57.0891 37.0655 57.2091ZM64.2755 88.5791C60.4855 89.2291 56.6755 91.2591 53.0155 92.5091C49.5755 93.6791 45.9555 94.3891 42.7755 96.1991C41.4755 96.9391 42.2755 98.6391 43.5255 98.7491C50.1855 99.3591 60.8055 95.3491 65.4955 90.5791C66.4255 89.6291 65.3855 88.3891 64.2755 88.5791ZM58.5955 104.379C55.6455 103.079 52.3555 103.339 49.7455 105.269C48.9155 105.879 49.0355 107.179 50.0855 107.479C52.7855 108.239 55.6055 108.249 58.2855 107.319C59.4655 106.889 59.9355 104.969 58.5955 104.379ZM87.8355 146.449C80.1055 149.809 73.2355 144.939 65.4755 145.929C64.1355 146.099 63.7055 148.069 65.1955 148.429C72.4055 150.139 82.1155 153.199 88.5955 148.139C89.3455 147.559 88.8955 145.979 87.8355 146.449ZM91.3955 129.009C87.2855 130.129 82.6755 131.489 79.4855 134.469C78.8155 135.089 79.3555 136.439 80.3055 136.329C84.6555 135.819 88.6555 133.229 92.1955 130.799C93.1255 130.179 92.5055 128.709 91.3955 129.009ZM76.3755 131.859C67.4255 135.329 59.5155 140.199 50.2255 142.779C49.4355 142.999 49.4755 144.179 50.2655 144.379C59.2355 146.589 70.3355 138.449 77.1855 133.659C78.0555 133.049 77.4855 131.429 76.3755 131.859Z" fill="#B49C83"/>
<defs>
<radialGradient id="paint0_radial_1134_12528" cx="0" cy="0" r="1" gradientUnits="userSpaceOnUse" gradientTransform="translate(104.639 50.9746) rotate(178.711) scale(27.4942 27.4942)">
<stop offset="0.0316" stop-color="#4C8148"/>
<stop offset="1" stop-color="#74C073"/>
</radialGradient>
<radialGradient id="paint1_radial_1134_12528" cx="0" cy="0" r="1" gradientUnits="userSpaceOnUse" gradientTransform="translate(84.8319 132.664) rotate(178.711) scale(34.065 34.065)">
<stop offset="0.0316" stop-color="#4C8148"/>
<stop offset="1" stop-color="#74C073"/>
</radialGradient>
<radialGradient id="paint2_radial_1134_12528" cx="0" cy="0" r="1" gradientUnits="userSpaceOnUse" gradientTransform="translate(20.9763 22.0569) rotate(178.711) scale(21.3058 21.3058)">
<stop offset="0.0316" stop-color="#4C8148"/>
<stop offset="1" stop-color="#74C073"/>
</radialGradient>
</defs>
</svg>
